<svg xmlns="http://w3.org" viewBox="0 0 64 64"><path fill="currentColor" d="M 31.943,3.553e-15 C 40.931,3.553e-15 48.513,3.085 54.685,9.257 C 60.893,15.467 64,23.048 64,32 C 64,40.991 60.951,48.476 54.855,54.456 C 48.379,60.819 40.742,64 31.943,64 C 23.294,64 15.79,60.856 9.429,54.57 C 3.144,48.284 8.882e-15,40.762 8.882e-15,32 C 8.882e-15,23.239 3.144,15.658 9.429,9.258 C 15.601,3.085 23.104,3.553e-15 31.943,3.553e-15 M 32.057,5.772 C 24.781,5.772 18.629,8.325 13.6,13.429 C 8.38,18.763 5.771,24.954 5.771,32.001 C 5.771,39.087 8.361,45.221 13.541,50.399 C 18.722,55.581 24.893,58.17 32.055,58.17 C 39.178,58.17 45.389,55.563 50.684,50.342 C 55.713,45.504 58.227,39.39 58.227,31.999 C 58.227,24.723 55.674,18.534 50.571,13.428 C 45.467,8.324 39.295,5.772 32.057,5.772 M 40.629,24.057 L 40.629,37.142 L 36.973,37.142 L 36.973,52.684 L 27.029,52.684 L 27.029,37.143 L 23.373,37.143 L 23.373,24.057 C 23.373,23.485 23.573,23 23.972,22.6 C 24.373,22.201 24.859,22 25.429,22 L 38.573,22 C 39.106,22 39.583,22.2 40.001,22.6 C 40.418,23 40.629,23.486 40.629,24.057 M 27.542,15.829 C 27.542,12.821 29.027,11.315 32,11.315 C 34.973,11.315 36.457,12.819 36.457,15.829 C 36.457,18.8 34.971,20.286 32,20.286 C 29.029,20.286 27.542,18.8 27.542,15.829"/></svg>