<svg xmlns="http://w3.org" viewBox="0 0 64 64"><path fill="currentColor" d="M 31.942,1.776e-15 C 40.932,1.776e-15 48.513,3.085 54.685,9.256 C 60.893,15.428 64,23.009 64,32 C 64,40.992 60.952,48.476 54.855,54.458 C 48.38,60.82 40.741,64 31.942,64 C 23.256,64 15.752,60.838 9.429,54.515 C 3.144,48.228 8.882e-15,40.725 8.882e-15,32 C 8.882e-15,23.238 3.144,15.657 9.429,9.257 C 15.6,3.086 23.104,1.776e-15 31.942,1.776e-15 M 7.2,23.372 C 6.248,26 5.771,28.877 5.771,32.001 C 5.771,39.087 8.361,45.221 13.541,50.401 C 18.76,55.545 24.932,58.116 32.055,58.116 C 39.256,58.116 45.464,55.508 50.685,50.287 C 52.552,48.497 54.017,46.63 55.083,44.685 L 43.027,39.314 C 42.606,41.334 41.588,42.981 39.97,44.256 C 38.348,45.532 36.435,46.267 34.226,46.456 L 34.226,51.371 L 30.512,51.371 L 30.512,46.456 C 26.969,46.42 23.73,45.144 20.798,42.629 L 25.198,38.172 C 27.292,40.114 29.674,41.085 32.341,41.085 C 33.445,41.085 34.389,40.839 35.171,40.342 C 35.951,39.848 36.343,39.03 36.343,37.885 C 36.343,37.084 36.056,36.437 35.485,35.942 L 32.4,34.627 L 28.629,32.912 L 23.543,30.683 L 7.2,23.372 M 32.057,5.714 C 24.781,5.714 18.629,8.285 13.6,13.428 C 12.342,14.686 11.161,16.114 10.057,17.715 L 22.286,23.2 C 22.819,21.524 23.828,20.181 25.315,19.172 C 26.799,18.163 28.533,17.601 30.515,17.486 L 30.515,12.571 L 34.23,12.571 L 34.23,17.486 C 37.164,17.639 39.83,18.629 42.23,20.457 L 38.058,24.743 C 36.265,23.486 34.439,22.858 32.572,22.858 C 31.581,22.858 30.696,23.049 29.916,23.429 C 29.135,23.81 28.744,24.458 28.744,25.372 C 28.744,25.639 28.839,25.905 29.029,26.172 L 33.086,28.002 L 35.886,29.259 L 41.03,31.544 L 57.427,38.858 C 57.962,36.61 58.228,34.325 58.228,32.001 C 58.228,24.648 55.676,18.458 50.572,13.428 C 45.505,8.285 39.331,5.714 32.057,5.714"/></svg>