<svg xmlns="http://w3.org" viewBox="0 0 64 64"><path fill="currentColor" d="M 31.944,1.776e-15 C 40.896,1.776e-15 48.477,3.105 54.688,9.314 C 60.895,15.486 64.001,23.046 64.001,32 C 64.001,40.954 60.952,48.457 54.855,54.514 C 48.418,60.838 40.779,64 31.943,64 C 23.294,64 15.79,60.857 9.429,54.57 C 3.144,48.286 0,40.762 0,32.001 C 0,23.277 3.144,15.716 9.429,9.316 C 15.64,3.105 23.145,1.776e-15 31.944,1.776e-15 M 32.061,5.771 C 24.785,5.771 18.631,8.342 13.602,13.486 C 8.382,18.783 5.773,24.954 5.773,32 C 5.773,39.125 8.363,45.257 13.543,50.4 C 18.724,55.582 24.895,58.171 32.059,58.171 C 39.182,58.171 45.391,55.563 50.686,50.343 C 55.714,45.467 58.229,39.354 58.229,32 C 58.229,24.688 55.675,18.516 50.572,13.486 C 45.505,8.342 39.334,5.771 32.061,5.771 M 44.117,24.456 L 44.117,29.941 L 20.86,29.941 L 20.86,24.456 L 44.117,24.456 M 44.117,34.743 L 44.117,40.225 L 20.86,40.225 L 20.86,34.743 L 44.117,34.743"/></svg>