<svg xmlns="http://w3.org" viewBox="0 0 64 64"><path fill="currentColor" d="M 31.943,0 C 40.894,0 48.474,3.105 54.685,9.315 C 60.893,15.487 64,23.048 64,32 C 64,40.954 60.951,48.457 54.855,54.514 C 48.418,60.838 40.779,64 31.943,64 C 23.294,64 15.79,60.857 9.429,54.571 C 3.144,48.286 8.882e-15,40.764 8.882e-15,32.001 C 8.882e-15,23.278 3.144,15.716 9.429,9.316 C 15.638,3.105 23.143,0 31.943,0 M 32.057,5.772 C 24.781,5.772 18.629,8.344 13.6,13.487 C 8.38,18.783 5.771,24.954 5.771,32 C 5.771,39.125 8.361,45.257 13.541,50.4 C 18.722,55.582 24.893,58.171 32.055,58.171 C 39.178,58.171 45.389,55.562 50.684,50.343 C 55.713,45.467 58.227,39.353 58.227,32 C 58.227,24.687 55.674,18.515 50.571,13.487 C 45.504,8.342 39.332,5.772 32.057,5.772 M 52.914,32.572 L 53.543,32.858 L 53.543,41.886 L 52.971,42.17 L 45.2,45.485 L 44.857,45.6 L 44.457,45.486 L 27.714,38.572 L 27.142,38.343 L 18.857,41.772 L 10.686,38.228 L 10.686,30 L 18.343,26.799 L 18.286,26.742 L 18.286,17.713 L 26.972,13.885 L 46.572,21.999 L 46.572,29.942 L 52.914,32.572 M 43.828,43.084 L 43.828,37.429 L 43.771,37.429 L 43.771,37.2 L 29.085,31.2 L 29.085,37.03 L 43.771,43.088 L 43.771,43.03 L 43.828,43.084 M 44.799,35.657 L 49.944,33.543 L 45.2,31.543 L 40.171,33.657 L 44.799,35.657 M 51.543,40.572 L 51.543,35.03 L 45.828,37.43 L 45.828,43.03 L 51.543,40.572"/></svg>