<svg xmlns="http://w3.org" viewBox="0 0 64 64"><path fill="currentColor" d="M 31.943,0 C 40.894,0 48.474,3.105 54.685,9.315 C 60.893,15.487 64,23.048 64,32 C 64,40.954 60.951,48.457 54.855,54.514 C 48.418,60.838 40.779,64 31.943,64 C 23.294,64 15.79,60.857 9.429,54.571 C 3.144,48.286 8.882e-15,40.764 8.882e-15,32.001 C 8.882e-15,23.278 3.144,15.716 9.429,9.316 C 15.638,3.105 23.143,0 31.943,0 M 32.057,5.772 C 24.781,5.772 18.629,8.344 13.6,13.487 C 8.38,18.783 5.771,24.954 5.771,32 C 5.771,39.125 8.361,45.257 13.541,50.4 C 18.722,55.582 24.893,58.171 32.055,58.171 C 39.178,58.171 45.389,55.562 50.684,50.343 C 55.713,45.467 58.227,39.353 58.227,32 C 58.227,24.687 55.674,18.515 50.571,13.487 C 45.504,8.342 39.332,5.772 32.057,5.772 M 45.086,22.857 C 45.58,22.857 46,23.028 46.342,23.37 C 46.686,23.713 46.858,24.133 46.858,24.628 L 46.858,48.17 C 46.858,48.665 46.686,49.084 46.342,49.426 C 46,49.769 45.58,49.942 45.086,49.942 L 27.657,49.942 C 27.161,49.942 26.743,49.771 26.399,49.426 C 26.055,49.083 25.885,48.665 25.885,48.17 L 25.885,41.197 L 18.914,41.197 C 18.417,41.197 17.999,41.027 17.656,40.684 C 17.314,40.342 17.142,39.923 17.142,39.426 L 17.142,15.886 C 17.142,15.428 17.293,15.038 17.6,14.715 C 17.903,14.392 18.285,14.192 18.742,14.115 L 18.913,14.115 L 36.341,14.115 C 36.835,14.115 37.255,14.286 37.599,14.629 C 37.941,14.971 38.113,15.392 38.113,15.887 L 38.113,22.859 L 45.086,22.859 L 45.086,22.857 M 20.628,37.714 L 25.885,37.714 L 25.885,24.628 C 25.885,24.171 26.036,23.781 26.343,23.457 C 26.647,23.135 27.01,22.934 27.428,22.857 L 27.656,22.857 L 34.628,22.857 L 34.628,17.657 L 20.628,17.657 L 20.628,37.714 M 43.371,26.342 L 29.371,26.342 L 29.371,46.4 L 43.371,46.4 L 43.371,26.342"/></svg>