<svg xmlns="http://w3.org" viewBox="0 0 64 64"><path fill="currentColor" d="M 13.222,0 C 2.657,0 0,9.969 0,18.42 C 0,26.872 2.656,36.84 13.222,36.84 C 23.786,36.84 26.443,26.872 26.443,18.42 C 26.443,9.969 23.786,0 13.222,0 M 13.222,6.946 C 13.651,6.946 14.042,7.012 14.41,7.103 C 15.171,7.759 15.543,8.664 14.813,9.926 L 7.777,22.856 C 7.561,21.22 7.53,19.616 7.53,18.419 C 7.53,14.697 7.788,6.946 13.222,6.946 M 18.488,12.907 C 18.861,14.891 18.914,16.963 18.914,18.42 C 18.914,22.143 18.656,29.895 13.224,29.895 C 12.796,29.895 12.402,29.85 12.036,29.759 C 11.966,29.738 11.902,29.716 11.834,29.692 C 11.722,29.66 11.604,29.624 11.498,29.582 C 10.288,29.067 9.526,28.136 10.624,26.489 L 18.488,12.907"/><path fill="currentColor" d="M 31.933,1.776e-15 C 23.056,1.776e-15 15.574,3.09 9.479,9.3 C 6.392,12.387 4.036,15.907 2.397,19.832 C 0.797,23.719 0,27.771 0,32 C 0,36.268 0.797,40.32 2.397,44.168 C 3.997,48.018 6.318,51.48 9.366,54.564 C 12.451,57.613 15.915,59.963 19.764,61.601 C 23.65,63.203 27.703,63.999 31.933,63.999 C 36.162,63.999 40.273,63.173 44.236,61.534 C 48.198,59.895 51.732,57.54 54.857,54.453 C 57.868,51.52 60.146,48.156 61.669,44.347 C 63.23,40.5 64,36.383 64,32 C 64,27.657 63.23,23.546 61.67,19.697 C 60.108,15.812 57.822,12.377 54.813,9.367 C 48.525,3.119 40.885,1.776e-15 31.933,1.776e-15 M 32.067,5.759 C 39.305,5.759 45.479,8.325 50.621,13.468 C 53.098,15.945 54.996,18.778 56.291,21.939 C 57.587,25.101 58.24,28.457 58.24,32 C 58.24,39.354 55.724,45.454 50.734,50.33 C 48.142,52.846 45.232,54.777 41.994,56.111 C 38.794,57.445 35.496,58.105 32.067,58.105 C 28.599,58.105 25.279,57.452 22.118,56.157 C 18.955,54.823 16.117,52.919 13.602,50.441 C 11.087,47.927 9.147,45.088 7.776,41.925 C 6.443,38.726 5.759,35.427 5.759,31.998 C 5.759,28.531 6.443,25.211 7.776,22.049 C 9.147,18.849 11.088,15.975 13.602,13.421 C 18.592,8.318 24.752,5.759 32.067,5.759"/></svg>