<?xml version="1.0" encoding="UTF-8" standalone="no"?>
<!-- Created with Inkscape (http://www.inkscape.org/) -->

<svg
   version="1.1"
   id="svg1"
   width="1254"
   height="1254"
   viewBox="0 0 1254 1254"
   sodipodi:docname="logo-neo.svg"
   inkscape:version="1.4.4 (dcaf3e7, 2026-05-05)"
   xmlns:inkscape="http://www.inkscape.org/namespaces/inkscape"
   xmlns:sodipodi="http://sodipodi.sourceforge.net/DTD/sodipodi-0.dtd"
   xmlns:xlink="http://www.w3.org/1999/xlink"
   xmlns="http://www.w3.org/2000/svg"
   xmlns:svg="http://www.w3.org/2000/svg">
  <defs
     id="defs1" />
  <sodipodi:namedview
     id="namedview1"
     pagecolor="#ffffff"
     bordercolor="#000000"
     borderopacity="0.25"
     inkscape:showpageshadow="2"
     inkscape:pageopacity="0.0"
     inkscape:pagecheckerboard="0"
     inkscape:deskcolor="#d1d1d1"
     showgrid="false"
     inkscape:zoom="0.97049442"
     inkscape:cx="618.24158"
     inkscape:cy="390.0074"
     inkscape:window-width="2560"
     inkscape:window-height="1494"
     inkscape:window-x="-11"
     inkscape:window-y="-11"
     inkscape:window-maximized="1"
     inkscape:current-layer="g1" />
  <g
     inkscape:groupmode="layer"
     inkscape:label="Image"
     id="g1">
    <path
       style="fill:#000000"
       d="M 616.44017,1123.1305 605.38034,1114.5 563.94017,1081.9153 522.5,1049.3305 l -24,-18.8603 -24,-18.8603 -18.5,-14.30186 -18.5,-14.30187 -18,-14.01607 -18,-14.01608 L 377,936.12511 352.5,917.27621 330.25,900.56949 308,883.86278 308,693.48984 V 503.11689 l 19.75,-16.55042 19.75,-16.55043 0.5,0.007 0.5,0.007 43,37.5441 43,37.5441 0.2671,0.74231 0.2671,0.74231 -9.16146,7.4487 -9.16147,7.4487 -3.60563,2.80338 L 409.5,567.10675 409,696.30338 408.5,825.5 l 0.5,14.41102 0.5,14.41103 26,19.86685 26,19.86686 21,16.22188 21,16.22187 37.84088,30.32603 37.84088,30.32603 0.65912,-0.65892 0.65912,-0.65891 0.35372,-38.76788 0.35372,-38.76789 -7.35372,-5.97612 L 566.5,896.34573 528.25,866.62366 490,836.90159 489.92448,692.70079 489.84896,548.5 468.17448,529.85276 446.5,511.20552 410.79061,480.20103 375.08123,449.19654 341.54061,420.4531 308,391.70966 l 0.008,-81.60483 0.008,-81.60483 23.24208,-24.63428 23.24208,-24.63428 19.5,-20.6219 19.5,-20.62189 0.31417,103.25618 0.31417,103.25617 16.60961,12 16.60962,12 5.07621,3.64961 5.07622,3.64962 23.5,-15.68892 23.5,-15.68892 71.16883,-47.7107 L 626.83766,249 l 0.58412,0 0.58413,0 93.74704,62.72804 93.74705,62.72805 2.01181,0.022 2.01182,0.022 20.68424,-15 20.68425,-15 0.17236,-102 0.17236,-102 -0.11842,-0.75 L 861,139 l 0.82581,0 0.82581,0 32.42419,34.19735 32.42419,34.19734 9.75,10.26124 9.75,10.26123 -0.0736,82.29142 -0.0736,82.29142 -5.17638,4.3856 -5.17637,4.38559 -10.5,9.23294 -10.5,9.23294 -31.5,28.03879 -31.5,28.03879 -27.5,24.69618 -27.5,24.69619 -16.75,14.61556 L 764,554.43815 V 696.00794 837.57773 L 745.25,853.0079 726.5,868.43806 700.75,889.78324 675,911.12842 v 38.59078 38.59078 l 1.75,-1.51721 1.75,-1.5172 26.50399,-21.38778 26.504,-21.38779 19.996,-15.63003 L 771.5,911.23993 779.15879,905.36997 786.81758,899.5 816.90879,876.50659 847,853.51318 V 709.87197 566.23076 l -11.49376,-9.86538 -11.49376,-9.86538 0.24376,-0.70864 0.24376,-0.70864 24,-21.70971 24,-21.70971 17.62624,-15.7443 17.62625,-15.74429 19.53919,16.16264 L 946.83087,502.5 946.66543,693.45472 946.5,884.40944 928,898.3263 l -18.5,13.91685 -23.5,18.06211 -23.5,18.06211 -47,36.50725 -47,36.50728 -31.5,24.6364 -31.5,24.6363 -27,21.2437 -27,21.2437 -11,8.5691 -11,8.5691 -1,0.7404 -1,0.7404 z M 652.3453,807.55758 675,790.61516 674.95553,715.05758 674.91106,639.5 651.94857,623 628.98608,606.5 H 627.5 626.01392 l -22.96249,16.5 -22.96249,16.5 -0.0445,75.5706 -0.0445,75.5706 23.68258,17.62692 23.68257,17.62691 1.16273,-0.69751 L 629.6906,824.5 Z M 529,557.50502 l 5.5,-4.17135 18.5,-13.44029 18.5,-13.44029 27.5,-19.16034 27.5,-19.16034 0.65962,-0.31621 0.65962,-0.3162 20.34038,14.21189 20.34038,14.21189 12.51468,8.8437 12.51468,8.8437 21.48532,15.68926 21.48532,15.68926 0.27346,-58.24485 0.27347,-58.24485 -1.57624,-1 -1.57624,-1 -52.67407,-34.75 -52.67408,-34.75 -0.80088,0 h -0.80089 l -28.48652,18.75 -28.48653,18.75 -25.94043,17 -25.94044,17 -0.0453,58.36501 -0.0453,58.36501 2.75,-1.77683 2.75,-1.77682 z"
       id="path1" />
  </g>
</svg>
